<svg xmlns="http://www.w3.org/2000/svg" viewBox="0 0 2542.5 36.1"><title>edge-white</title><path d="M2211.7,14.7c.4-.6,0-.1.4-.5s0-.5-.4-1-1.2-.1-2.2.5C2210.2,14.7,2210.2,14.5,2211.7,14.7Z" style="fill:#fff"/><path d="M1721.5,7.3h-.6V5a4.1,4.1,0,0,1-2.2-1.3l-.3.9a3.3,3.3,0,0,0,0,2.6Z" style="fill:#fff"/><path d="M1713.5,5.4a6.4,6.4,0,0,1-1.8-1.5l.5-.8c-.4.4-.9.6-1.3,1h-.4V5.6l-2.2-.5a10.6,10.6,0,0,1-.2,2.1h3.8A5,5,0,0,0,1713.5,5.4Z" style="fill:#fff"/><path d="M1743.2.5h.4c-.5-.5-.1-.2-.9-.5V1h.4Z" style="fill:#fff"/><path d="M2180.7,19.6c-.4-.6,0-.1-.4-.5s-.4-.3-1.3-.5l.4,1.6Z" style="fill:#fff"/><path d="M1727.9,5.6a5.9,5.9,0,0,0,.9-3.1h-.9c-1.1-.8-1.2-.1-2.2.5C1726.3,4.7,1726,5.2,1727.9,5.6Z" style="fill:#fff"/><path d="M1535.3,14.4c1.7,2.4,1.5-.1,3.1.5s1.6,2.1,3,2.6c1.6-3,3.5-.5,4-4.7-2.8-2-2.1-1.2-5.2-.6-.4-.6,0-.1-.4-.5s0-.5.4-1,.5-1.8,2.2-2.1.3.6.9.5h.4c-.4-.6,0-.1-.4-.5a8.6,8.6,0,0,0-1.3-2.6c-.5.5-.1.2-.9.5s-.2.9-.9,1.6,0-.1-.4-.5V6.1c-1.8-.2-2.5-.6-3.9,0,.8,1.8,2,2.3,2.6,4.2C1536.5,10.5,1534.6,12.9,1535.3,14.4Z" style="fill:#fff"/><path d="M1534.5,10.7c.4-.6,0-.1.4-.5s-1-1.5-1.3-3.7h-2.2a31.1,31.1,0,0,0,.8,4.2Z" style="fill:#fff"/><path d="M1648,13.3c.4-.6.2-.1.4-1h-1.3l.4,1.6C1648.1,13.3,1647.6,13.8,1648,13.3Z" style="fill:#fff"/><polygon points="1676.5 4.3 1674.7 4.3 1674.7 5.9 1676.5 5.9 1676.5 4.3" style="fill:#fff"/><path d="M1397.4,6.8a5.8,5.8,0,0,0-3.9-1.1,5,5,0,0,1-.9,1.6c.3,1.4.7,1.5,1.3,2.6A17.4,17.4,0,0,0,1397.4,6.8Z" style="fill:#fff"/><path d="M2458.3,21.6c-.9-1-.7-.8-1.7-.5v2.8h1.5A2.2,2.2,0,0,0,2458.3,21.6Z" style="fill:#fff"/><path d="M2450.5,18.4c-.3-1,0-.5-.4-1s-1.1-.5-2.2-.5v1c-.4.6-.3.5-.4,1.6h2.6C2450.3,18.5,2450,19,2450.5,18.4Z" style="fill:#fff"/><path d="M2375.8,14c-.9-1.3-.3-.2-1.3-.5S2375.1,14.4,2375.8,14Z" style="fill:#fff"/><path d="M2240.5,10.7v-.5h-.9C2240.1,10.7,2239.7,10.4,2240.5,10.7Z" style="fill:#fff"/><path d="M2460.6,23.9h1.2C2461.2,23.4,2461,23.5,2460.6,23.9Z" style="fill:#fff"/><path d="M2460.1,19c.4-.6.3-.5.4-1.6l-1.3.5v2.1h.9Z" style="fill:#fff"/><path d="M2370.1,20.2c.7.8.9.9,2.2,1.1a7.7,7.7,0,0,0,.9-2.1c-2-1.4-2-1.3-3.9,0C2369.7,20.4,2369,19.5,2370.1,20.2Z" style="fill:#fff"/><path d="M2356.6,11.7v1h.4C2356.8,11.8,2357,12.3,2356.6,11.7Z" style="fill:#fff"/><path d="M2352.2,10.6c.5-.5,0,0,.4-.5a3.7,3.7,0,0,0,1.8-2.6h-.4c-.5-.5-.4-.3-1.3-.5-.2,1.6-1,2.6-.5,3.1Z" style="fill:#fff"/><path d="M2365.3,13.3a9.2,9.2,0,0,0,1.3-2.6h-1.7a4.3,4.3,0,0,1-1.3,1C2364,13.4,2363.8,13,2365.3,13.3Z" style="fill:#fff"/><path d="M830.6,7.2h3.8a10.6,10.6,0,0,1-.2-2.1l-2.2.5V4.1h-.4c-.3-.4-.9-.6-1.3-1l.5.8a6.4,6.4,0,0,1-1.8,1.5A5,5,0,0,0,830.6,7.2Z" style="fill:#fff"/><path d="M95.1,19.5c-.2-1.1-.1-1-.4-1.6v-1c-1.1,0-1.6,0-2.2.5s-.2.1-.4,1,.2.1.4,1Z" style="fill:#fff"/><path d="M168,13.4c-1,.3-.4-.7-1.3.5C167.4,14.4,167.8,13.6,168,13.4Z" style="fill:#fff"/><path d="M172.4,20.2c1.1-.6.4.3.9-1.1-2-1.3-2-1.3-3.9,0a7.7,7.7,0,0,0,.9,2.1C171.5,21,171.7,21,172.4,20.2Z" style="fill:#fff"/><path d="M185.9,11.7c-.4.6-.2.1-.4,1h.4Z" style="fill:#fff"/><path d="M1148.5,9.9c.5-1.1.9-1.2,1.3-2.6a5,5,0,0,1-.9-1.6,5.8,5.8,0,0,0-3.9,1.1A17.4,17.4,0,0,0,1148.5,9.9Z" style="fill:#fff"/><path d="M189.8,10.1c.4.6,0,.1.4.5v-.5c.5-.5-.3-1.6-.5-3.1-.9.2-.8.1-1.3.5H188A3.7,3.7,0,0,0,189.8,10.1Z" style="fill:#fff"/><path d="M2501.6,25.6s-23.7-1-33.5-1.1-35.5-2.1-35.5-2.1-11.2-.4-13.6-.1-6.6-4.9-9-4.9-8.4,4.8-8.4,4.8l-6.5-1.5c.5-.6.7-.9.8-2.8-1.2.4-1.3.9-2.2,1.5v1a24.6,24.6,0,0,0-6-.7h-.5c-2.8.7-4.1,3.5-5,2.2s-1.7-.9-3.3-.9V19.2h1.3c.7-1.4,1.1-1.3,1.3-3.6a3.9,3.9,0,0,0-2.6-1.1c-.7,2.5-.3,4-3.1,4.1a11.7,11.7,0,0,1-.3,2.6,10.5,10.5,0,0,0-2.5.7c-2.4,1.1-10.1-.4-14.3-.1s-14.6-.4-17.4-.1-11.2,2.5-15.7,2.5-11.8-2.2-13.2-2.7-15.7-.4-19.9-.2-13.9.4-16.7-.1-10.1,6.3-11.5,8-15.7-.1-18.1-.2-3.1-2.5-4.5-2.7-2.1-3.6-5.9-4.9-10.5.7-14.6.7-38,.9-38,.9h-8.4c.6-1.1,1-1.1,1.3-3-2-.2-3.2-1-3.9.5a4.6,4.6,0,0,0-.5,2.6h.9l-5.4.5a27.9,27.9,0,0,1-9.8-.9c-.2-.9-.4-1.8-.5-2.9h-1.3a6.7,6.7,0,0,0-.8,2.2l-2.9-.7c-2.8-.4-4.4-4.2-6.6-5s-6.6-.1-9.8-.1-17.1.7-20.6,1.7-3.5,3.5-11.5,3.4-14.3-1.8-16-.1-4.2.8-5.9.4-16.7-.1-16.7-.1-6.6,3.7-9.3,3-9.2.2-10.6-.1-11.8-.3-16-.1-4.2-4.8-4.2-4.8a61.3,61.3,0,0,0-8-2.4,18,18,0,0,0-11.9,1.8,13.9,13.9,0,0,1-9.8,1.6s-16-2.6-18.8-3.7-19.5-3.7-19.5-3.7a43.4,43.4,0,0,0-10.8,3.4c-5.6,2.6-8.4,1-16-.1s-11.5,2.2-13.6,2.2-2.1,4.1-5.6,4.6A112.1,112.1,0,0,1,1898,23l.7-.5-.8-1.2h-16.3c-2.4-1.9-4.6-4.8-5.7-5.4s-7.3,1.6-11.5-.1-13.6,2.8-13.6,2.8-8.7.3-14.6-.1L1821.6,17c-1,0-4.5,1.6-7.3,2.4s-8.7-.9-10.4-1.3-4.9-3.8-6.2-5S1784,13,1780.2,15s-13.2-.5-16.7-.1-19.2-1.4-20.5-.2-4.9,2.9-7,2.9-3.8-.4-8.7-.5l-18.5-.2a85.9,85.9,0,0,0-14.6,1.5,113.5,113.5,0,0,1-12.2-.1c-3.9-.4-19.1-2.7-23.3-2.7s-11.8-1.8-16.4-1.8a17.5,17.5,0,0,1-4.6-.8v-.9c.7-1.4,2-1.1,3.1-2.1s-.1-1.7.5-2.6,1,.3,1.8-1.5c-.8-.3-.4,0-.9-.5-2.1.9-5.4.2-5.7,4.6a4.3,4.3,0,0,0-1.7.5l.7,1.7-2.1-.9h-.5a11.2,11.2,0,0,1-.3-1.2h-1.7a9.5,9.5,0,0,0-.3,1.1c-4.4-.3-12.6-.8-15.6-.8s-17.1.7-18.5.7-4.5,3.3-8,4.5-4.5-.5-7.7-2.2-10.5.8-13.2-.1-10.5,1.6-15,1.6-5.9,4.1-11.2,5c-3.6.6-10.4-2.6-14.9-4.9a5.4,5.4,0,0,0,2.2.5,4.3,4.3,0,0,1,1.3-1c-.3-1,0-.5-.4-1-.8-2.9-1.7-1.5-3.1-.5v2.1c-2.1-1-3.7-1.9-4.2-2a59.8,59.8,0,0,0-7-.8,3.2,3.2,0,0,0,.8-1.4c.2-.2.7.1.4-.5h-.4c-.6-.9-.3-.6-1.3-1.1a6.8,6.8,0,0,1-1.8,1c.3,1.3.4,1.7,1.2,1.9-5.7-.4-12.7-.5-15.6.7-4.9,2-5.2,2.9-11.9,3.7s-12.2,1.1-15,2.6-2.8-4.8-5.9-6.7-15.3.5-16.4-.1-12.2,6.3-16.8,6.1-13.9.9-16-.1-7.6-6.5-7.6-6.5-9.1,1.1-13.2-.1-34.8-1.6-35.9-.3-4.2,1.6-5.2,0-15.3.7-19.9-.2-23.3-.6-28.2-.2-2.8,3.3-4.6,4.1-11.8-.1-16.7-.1l-7.8-.2v-.4l-5.9.2-5.9-.2v.4l-7.8.2c-4.9,0-15,1-16.7.1s.3-3.7-4.6-4.1-23.7-.6-28.2.2-18.8-1.5-19.9.2-4.2,1.3-5.2,0-31.7-1-35.9.3-13.2.1-13.2.1-5.5,5.5-7.6,6.5-11.5-.1-16,.1-15.7-6.7-16.8-6.1-13.3-1.7-16.4.1-3.1,8.2-5.9,6.7-8.4-1.8-15-2.6-7-1.7-11.9-3.7c-2.9-1.2-9.9-1.1-15.6-.7.7-.2.9-.6,1.2-1.9a6.8,6.8,0,0,1-1.8-1c-1,.4-.7.2-1.3,1.1h-.4c-.3.7.2.3.4.5a3.2,3.2,0,0,0,.8,1.4,59.8,59.8,0,0,0-7,.8c-.6.2-2.2,1-4.2,2V12.8c-1.3-1-2.3-2.4-3.1.5-.4.6-.2.1-.4,1a4.3,4.3,0,0,1,1.3,1,5.4,5.4,0,0,0,2.2-.5c-4.5,2.3-11.3,5.5-14.9,4.9-5.2-.8-6.7-5-11.2-5s-12.2-2.5-15-1.6-10.1-1.6-13.2.1-4.2,3.4-7.7,2.2-6.6-4.5-8-4.5-14.3-.7-18.5-.7-11.2.5-15.6.8a9.5,9.5,0,0,0-.3-1.1h-1.7a11.2,11.2,0,0,1-.3,1.2h-.5l-2.1.9.7-1.7a4.3,4.3,0,0,0-1.7-.5c-.3-4.4-3.6-3.7-5.7-4.6-.5.5-.1.2-.9.5.7,1.8,1.2.5,1.8,1.5s-.2,2,.5,2.6,2.4.7,3.1,2.1v.9a17.5,17.5,0,0,1-4.6.8c-4.5.1-12.2,1.8-16.4,1.8s-19.4,2.2-23.3,2.7a113.5,113.5,0,0,1-12.2.1,85.9,85.9,0,0,0-14.6-1.5l-18.5.2c-4.9,0-6.6.5-8.7.5s-5.7-1.7-7-2.9-17,.5-20.5.2-12.9,2.2-16.7.1-16.1-3.2-17.4-1.9-4.5,4.6-6.2,5-7.7,2.1-10.4,1.3-6.3-2.4-7.3-2.4l-14.6,1.4c-5.9.5-14.6.1-14.6.1s-9.4-4.6-13.6-2.8-10.1-.8-11.5.1-3.3,3.6-5.7,5.4H644.5l-.8,1.2.7.5a112.1,112.1,0,0,1-12.4.2c-3.5-.4-3.5-4.6-5.6-4.6s-5.9-3.3-13.6-2.2-10.4,2.8-16,.1a43.4,43.4,0,0,0-10.8-3.4s-16.7,2.6-19.5,3.7-18.8,3.7-18.8,3.7a13.9,13.9,0,0,1-9.8-1.6A18,18,0,0,0,526,17.2a61.3,61.3,0,0,0-8,2.4s0,4.9-4.2,4.8-14.6-.1-16,.1-7.9-.6-10.6.1-9.3-3-9.3-3-15-.3-16.7.1-4.2,1.3-5.9-.4-8,.1-16,.1-8-2.4-11.5-3.4-17.4-1.8-20.6-1.7-7.6-.8-9.8.1-3.8,4.6-6.6,5l-2.9.7a6.7,6.7,0,0,0-.8-2.2h-1.3c-.1,1-.3,1.9-.5,2.9a27.9,27.9,0,0,1-9.8.9l-5.4-.5h.9a4.6,4.6,0,0,0-.5-2.6c-.7-1.5-1.9-.7-3.9-.5.3,1.9.6,1.9,1.3,3h-8.4s-33.8-1-38-.9-10.8-2-14.6-.7-4.5,4.7-5.9,4.9-2.1,2.7-4.5,2.7-16.7,1.8-18.1.2-8.8-8.5-11.5-8-12.5.4-16.7.1-18.5-.4-19.9.2-8.7,2.7-13.2,2.7-12.9-2.3-15.7-2.5-13.2.4-17.4.1-11.8,1.2-14.3.1a10.5,10.5,0,0,0-2.5-.7,11.7,11.7,0,0,1-.3-2.6c-2.8-.2-2.4-1.6-3.1-4.1a3.9,3.9,0,0,0-2.6,1.1c.2,2.4.6,2.2,1.3,3.6h1.3V21c-1.5.1-2.8.3-3.3.9s-2.3-1.5-5-2.2h-.5a24.6,24.6,0,0,0-6,.7v-1c-.9-.7-1-1.1-2.2-1.5.1,1.9.3,2.2.8,2.8l-6.5,1.5s-6-4.8-8.4-4.8-6.6,5.2-9,4.9-13.6.1-13.6.1-25.8,2-35.5,2.1-33.5,1.1-33.5,1.1-27-.1-40.9.2V36.1H2542.5V25.8C2528.6,25.5,2501.6,25.6,2501.6,25.6Z" style="fill:#fff"/><path d="M80.7,23.9h1.2C81.5,23.5,81.3,23.4,80.7,23.9Z" style="fill:#fff"/><path d="M85.9,23.9V21.1c-1-.2-.8-.4-1.7.5a2.2,2.2,0,0,0,.2,2.2Z" style="fill:#fff"/><path d="M82.4,20.1h.9V18L82,17.5c.2,1.1.1,1,.4,1.6Z" style="fill:#fff"/><path d="M178.9,11.8a4.3,4.3,0,0,1-1.3-1h-1.7a9.2,9.2,0,0,0,1.3,2.6C178.7,13,178.4,13.4,178.9,11.8Z" style="fill:#fff"/><path d="M824,7.2a3.3,3.3,0,0,0,0-2.6l-.3-.9A4.1,4.1,0,0,1,821.6,5V7.1H824Z" style="fill:#fff"/><polygon points="867.7 5.9 867.7 4.3 866 4.3 866 5.9 867.7 5.9" style="fill:#fff"/><path d="M894.9,13.8l.4-1.6H894c.3,1,0,.5.4,1S894.4,13.3,894.9,13.8Z" style="fill:#fff"/><path d="M1008,10.7h2.2a31.1,31.1,0,0,0,.8-4.2h-2.2c-.3,2.1-.8,1.9-1.3,3.7S1007.6,10.2,1008,10.7Z" style="fill:#fff"/><path d="M1002.3,12.3c-3.2-.6-2.5-1.4-5.2.6.5,4.2,2.4,1.7,4,4.7,1.4-.5,2.4-2.4,3-2.6s1.3,1.9,3.1-.5-1.2-3.9-3.1-4.1c.6-1.9,1.8-2.3,2.6-4.2-1.4-.6-2.1-.1-3.9,0V7.7c-.5.5,0-.1-.4.5s-.5-.3-.9-1.6-.4,0-.9-.5a8.6,8.6,0,0,0-1.3,2.6c-.5.5,0-.1-.4.5h.4c.6.1.2.4.9-.5s1.8.3,2.2,2.1.2.1.4,1S1002.7,11.8,1002.3,12.3Z" style="fill:#fff"/><path d="M816.8,3c-1-.6-1.1-1.3-2.2-.5h-.9a5.9,5.9,0,0,0,.9,3.1C816.4,5.2,816.2,4.7,816.8,3Z" style="fill:#fff"/><path d="M363.6,18.6c-.9.2-.8.1-1.3.5s0-.1-.4.5l1.3.5Z" style="fill:#fff"/><path d="M330.8,14.7c1.5-.1,1.5,0,2.2-1.1-1-.6-1.1-1.3-2.2-.5s-.2.1-.4,1S330.4,14.1,330.8,14.7Z" style="fill:#fff"/><path d="M302.8,10.2H302v.5C302.8,10.4,302.4,10.7,302.8,10.2Z" style="fill:#fff"/><path d="M799.3,1h.4V0c-.8.3-.4,0-.9.5h.4Z" style="fill:#fff"/></svg>